<?xml version="1.0" encoding="UTF-8" standalone="no"?>
<svg
   height="48"
   viewBox="0 -960 960 960"
   width="48"
   version="1.1"
   id="svg4"
   xmlns="http://www.w3.org/2000/svg"
   xmlns:svg="http://www.w3.org/2000/svg">
  <defs
     id="defs8" />
  <path
     d="m 220,-120 q -24.75,0 -42.375,-17.625 Q 160,-155.25 160,-180 v -390 q 0,-14.25 6.375,-27 6.375,-12.75 17.625,-21 l 260,-195 q 8.295,-6 17.344,-9 9.049,-3 18.853,-3 9.803,0 18.717,3 8.915,3 17.086,9 l 260,195 q 11.25,8.25 17.625,21 6.375,12.75 6.375,27 v 390 q 0,24.75 -17.625,42.375 Q 764.75,-120 740,-120 H 560 V -400 H 400 v 280 z"
     id="path2"
     style="opacity:0.75;fill:#ffffff" />
</svg>
