<?xml version="1.0" encoding="UTF-8" standalone="no"?>
<svg
   viewBox="0 0 4225 256"
   version="1.1"
   id="svg351"
   width="4225"
   height="256"
   xmlns="http://www.w3.org/2000/svg"
   xmlns:svg="http://www.w3.org/2000/svg">
  <defs
     id="defs355" />
  <style
     id="style345">.st0{fill:#fff}</style>
  <path
     id="path347"
     class="st0"
     d="m 16.599609,3 c -1.799998,0 -3.5,1.0003925 -3.5,2.9003906 C 13.099609,7.8003887 14.500002,8.7000003 16,9 c 0.799999,0.1 1.699609,0.4000006 1.599609,1 -0.1,0.999999 -2.19961,1.00078 -3.099609,-0.1992188 L 13,11.300781 c 0.899999,1.199999 2.100782,1.798828 3.300781,1.798828 1.799998,0 3.698828,-1.000392 3.798828,-2.90039 0.1,-2.4999978 -1.598829,-3.098438 -3.298828,-3.3984378 C 16.100782,6.6007814 15.6,6.4003901 15.5,5.9003906 c 0,-1.0999989 1.800782,-1.1996083 2.800781,-0.099609 l 1.59961,-1.2011718 C 18.900392,3.3996106 17.799608,3 16.599609,3 Z m 8.09961,0 c -1.899998,0 -3.798828,1.1007835 -3.798828,3.3007812 v 3.2988282 c 0,2.1999976 1.89883,3.3007816 3.798828,3.3007816 1.199999,0 2.600391,-0.601174 3.40039,-2.201172 L 26,9.6992188 c -0.5,1.4999982 -2.699219,1.0999992 -2.699219,0 V 6.3007812 c 0,-1.1999988 2.098829,-1.50078 2.798828,-0.3007812 l 2,-0.8007812 C 27.29961,3.4992205 25.899218,3 24.699219,3 Z m 8,0 c -1.999998,0 -4,1.1007835 -4,3.3007812 v 3.2988282 c 0,2.1999976 2.000002,3.3007816 4,3.3007816 1.999998,0 4,-1.100784 4,-3.3007816 V 6.3007812 C 36.699219,4.1007834 34.699217,3 32.699219,3 Z M 1,3.0996094 v 4.0996094 l 2.4003906,2.2011718 v -4 h 1.2988282 c 0.7999992,0 1.2011718,0.4000006 1.2011718,1 v 3 C 5.9003906,10.00039 5.499218,10.5 4.6992188,10.5 H 1 v 2.300781 h 3.5996094 c 1.8999981,0 3.7011718,-1.001174 3.7011718,-3.2011716 V 6.4003906 c 0,-2.2999977 -1.8011737,-3.3007812 -3.7011718,-3.3007812 z m 8.5996094,0 V 12.900391 H 12 V 3.0996094 Z m 28.4003906,0 v 9.7011716 h 2.400391 V 9.8007812 h 0.40039 L 43,12.900391 h 3 L 43.400391,9.5996094 c 1.199998,-0.3999996 2,-1.49883 2,-3.2988282 -0.1,-2.2999976 -1.599612,-3.2011718 -3.59961,-3.2011718 z m 8.699219,0 v 4.0996094 l 2.40039,2.2011718 v -4 h 1.300782 c 0.799999,0 1.199218,0.4000006 1.199218,1 v 3 C 51.599609,10.00039 51.20039,10.5 50.400391,10.5 h -3.701172 v 2.300781 h 3.601562 C 52.200779,12.800781 54,11.799607 54,9.5996094 V 6.4003906 C 54,4.1003929 52.200779,3.0996094 50.300781,3.0996094 Z m -14,2.0996094 c 0.799999,0 1.601562,0.3015632 1.601562,1.1015624 v 3.3984376 c 0,0.6999992 -0.8,1.1015622 -1.5,1.1015622 -0.799999,0 -1.601562,-0.301563 -1.601562,-1.1015622 V 6.3007812 c 0,-0.6999992 0.8,-1.1015624 1.5,-1.1015624 z m 7.701172,0.2011718 h 1.40039 c 1.599999,0 1.599999,2.2988282 0,2.2988282 h -1.40039 z" />
  <path
     style="fill:#ffffff;fill-opacity:1;stroke:none;stroke-width:96;stroke-linecap:round;stroke-linejoin:round"
     id="path1419"
     d="m 61.494926,8.9761981 0.214709,3.5829369 -2.649941,-2.183525 -3.341226,1.311389 1.257778,-3.1949891 -2.2797,-2.7724535 3.42729,0.208912 1.932294,-3.0248594 0.860403,3.3241041 3.473924,0.9029876 z" />
  <path
     style="fill:#ffffff;fill-opacity:1;stroke:none;stroke-width:96;stroke-linecap:round;stroke-linejoin:round"
     id="path1423"
     d="m 73.615073,8.4732542 -0.109317,0.058565 -0.02192,0.1220644 -0.08948,-0.085869 -0.122863,0.016874 0.05402,-0.1116353 -0.05402,-0.1116353 0.122863,0.016875 0.08948,-0.085869 0.02192,0.1220644 z" />
</svg>
